<svg xmlns="http://www.w3.org/2000/svg" viewBox="0 0 32 32">
  <path fill="#D64F27" d="M26 30H6c-2.2 0-4-1.8-4-4V6c0-2.2 1.8-4 4-4h20c2.2 0 4 1.8 4 4v20c0 2.2-1.8 4-4 4zm0-20c0-3.4-2.6-6-6-6h-8c-3.4 0-6 2.6-6 6v8c0 3.4 2.6 6 6 6h8c3.4 0 6-.6 6-4V10zm-6 6.4c.6 0 1.2 0 1.8-.2.6-.2 1-.4 1.6-.6v1.6c-.6.2-1.2.4-1.6.6s-1 .2-1.8.2c-2 0-3.4-.8-4.2-2.4-.6.8-1.2 1.4-1.8 1.8-.8.4-1.6.6-2.4.6-1.2 0-2-.4-2.6-1-.8-.4-1-1.4-1-2.4 0-1.2.4-2 1.2-2.6s2.2-1 3.8-1h1.8v-.8c0-1-.2-1.6-.6-2-.2-.6-.8-.8-1.6-.8-1 0-2 .2-3.2.8L9 7c.4-.2 1-.6 1.8-.8.6 0 1.2-.2 2-.2s1.6.2 2.2.4c.4.4 1 .8 1.2 1.6.4-.6.8-1.2 1.4-1.4.6-.4 1.2-.6 2-.6 1.4 0 2.4.4 3.2 1.4.8 1 1.2 2.2 1.2 3.8v1.2h-7.2c0 2.8 1.2 4 3.2 4zm-5-4.2h-1.6c-1.4 0-2.2.2-2.8.6-.6.4-.8 1-.8 1.8 0 .6.2 1.2.6 1.4.4.4.8.4 1.4.4 1 0 1.8-.2 2.4-.8.6-.6.8-1.4.8-2.6v-.8zm7.2-1.2c0-1.2-.2-2-.6-2.6s-1-.8-1.8-.8-1.4.2-2 .8-.8 1.4-1 2.6h5.4z"/>
</svg>
