<?xml version="1.0"?>
<!-- This Source Code Form is subject to the terms of the Mozilla Public
   - License, v. 2.0. If a copy of the MPL was not distributed with this
   - file, You can obtain one at http://mozilla.org/MPL/2.0/. -->

<svg xmlns="http://www.w3.org/2000/svg">
    <clipPath id="tab-curve-clip-path-start" clipPathUnits="objectBoundingBox">
      <path d="M 1,0.0645 C 0.5683,0.0679,0.51693,0.3764,0.4837,0.5484 c -0.0522,0.2702,-0.1425,0.4194,-0.4333,0.4194 L 0,1 H 1.0333 V 0.0645 z"/>
    </clipPath>
    <clipPath id="tab-curve-clip-path-end" clipPathUnits="objectBoundingBox">
      <path d="M -0.0333,0.0645 C 0.4317,0.0679,0.4831,0.3764,0.5163,0.5484 c 0.0522,0.2702,+0.1425,0.4194,0.4333,0.4194 L 1,1 H -0.033 V 0.0645 z"/>
    </clipPath>
    <clipPath id="tab-clip-path-outer" clipPathUnits="userSpaceOnUse">
      <path d="M 30,0 C 24,0 17.78,2.58 15.10,8.09 12.05,13.46 13.14,20.37 9.18,25.3 7.1,27.7 3.8,28 0.8,28 c -0.4,0.6 -2.09,1.11 -1.46,1.80 l 2.45,2.72 61.60,0 2.59,-3.06 C 65.15,28.96 64.57,27.80 63.5,28 60.13,28.13 56.33,27.03 54.74,23.78 51.85,18.44 52.65,11.81 49.09,6.73 45.88,1.65 39.54,-0.26 33.8,0 32.5,0 31.7,0 30,0 z"/>
    </clipPath>
</svg>
