<?xml version="1.0"?>
<!-- This Source Code Form is subject to the terms of the Mozilla Public
   - License, v. 2.0. If a copy of the MPL was not distributed with this
   - file, You can obtain one at http://mozilla.org/MPL/2.0/. -->

<svg xmlns="http://www.w3.org/2000/svg">
	<clipPath id="tab-curve-clip-path-start" clipPathUnits="objectBoundingBox">
		<path d="m 1,0.0625 0.05,0 0,0.938 -1,0 0,-0.028 C 0.32082458,0.95840561 0.4353096,0.81970962 0.48499998,0.5625 0.51819998,0.3905 0.535,0.0659 1,0.0625 z"/>
	</clipPath>

	<clipPath id="tab-curve-clip-path-end" clipPathUnits="objectBoundingBox">
		<path d="m 0,0.0625 -0.05,0 0,0.938 1,0 0,-0.028 C 0.67917542,0.95840561 0.56569036,0.81970962 0.51599998,0.5625 0.48279998,0.3905 0.465,0.0659 0,0.0625 z"/>
	</clipPath>

	<clipPath id="tab-hover-clip-path" clipPathUnits="objectBoundingBox">
		<path d="M 0,0.2 0,1 1,1, 1,0.2 z"/>
	</clipPath>
	
	<clipPath id="urlbar-back-button-clip-path" clipPathUnits="userSpaceOnUse">
		<path d="M 0,0 0,7.8 C 2.5,11 4,14 4,18 4,22 2.5,25 0,28 l 0,22 10000,0 0,-50 L 0,0 z" />
	</clipPath>
  
  <clipPath id="urlbar-back-button-clip-path-win10">
    <path d="M -6,-2 l 0,1 a 15 15 0 0,1 0,30 l 0,1 l 10000,0 l 0,-32 l -10000,0 z" />
  </clipPath>
	
  <clipPath id="keyhole-forward-clip-path" clipPathUnits="objectBoundingBox">
    <path d="M 0,0 C 0.16,0.11 0.28,0.29 0.28,0.5 0.28,0.71 0.16,0.89 0,1 L 1,1 1,0 0,0 z" />
  </clipPath>
</svg>
